<svg width="64" height="64" viewBox="0 0 64 64" xmlns="http://www.w3.org/2000/svg">
    <g stroke="#303030" stroke-width=".914" fill="none" fill-rule="evenodd">
        <path d="M9.846 46.705c-3.39.801-6.78-1.336-7.57-4.775s1.318-6.875 4.709-7.677M2.985 36.356a4.683 4.683 0 0 1-2.863-3.333c-.581-2.533.97-5.067 3.462-5.658a4.576 4.576 0 0 1 4.152 1.086M4.058 27.241a4.634 4.634 0 0 1-1.823-2.7c-.596-2.505.993-5.007 3.55-5.59a4.808 4.808 0 0 1 4.764 1.593M29.89 17.425V63M36.571 21.632l-6.329 6.311M37.275 37.759l-7.033 6.31M19.49 34.253l8.642 8.536V63H2.813M23.702 26.54l4.43 4.76v9.263l-6.33-6.245M35.165 32.15c4.272 0 7.736 3.453 7.736 7.712 0 4.26-3.464 7.713-7.736 7.713"/>
        <path d="M19.692 42.667c-5.049 0-9.143-4.238-9.143-9.466 0-5.227 4.094-9.465 9.143-9.465"/>
        <path d="M24.615 49.507c-3.176 1.834-7.203.683-8.994-2.572a6.893 6.893 0 0 1-.44-5.67M13.616 25.84a6.879 6.879 0 0 1-3.067-5.722c0-3.81 3.114-6.9 6.956-6.9a6.964 6.964 0 0 1 5.704 2.95M28.132 9.584c0-3.027 2.519-5.48 5.627-5.48 3.107 0 5.626 2.453 5.626 5.48 0 2.27-1.372 4.205-3.39 5.037"/>
        <path d="M18.492 13.218A6.838 6.838 0 0 1 16.88 8.79c0-3.75 2.985-6.79 6.667-6.79 2.633 0 4.908 1.554 5.992 3.809M35.868 14.62c6.343 0 11.956 4.51 11.956 11.125 0 4.288-2.454 8.016-6.063 9.91"/>
        <path stroke-linecap="square" d="m35.868 14.621-2.11-2.104M38.681 11.816l-2.813-2.805"/>
        <path d="M64 63H32.352V45.172l5.143-4.609M11.604 37.759v24.54M15.473 46.172l-3.517 3.506M7.033 39.862l4.923 4.908M41.143 62.299v-9.115M55.912 58.793v-5.609M41.495 54.236h14.769"/>
        <path d="M57.67 62.299v-3.506H41.495M55.912 58.793v3.506M43.253 58.793v3.506"/>
    </g>
</svg>
