<svg width="64" height="64" viewBox="0 0 64 64" xmlns="http://www.w3.org/2000/svg">
    <path d="M32.04 14c4.79 0 8.688 3.87 8.688 8.628 0 1.362-.723 3.43-1.743 5.667l12.352-.001.081.018.048-.004c.03-.002.057-.008.056-.013h3.181c.18 0 .383.077.438.29l8.825 21.708c.058.18.033.354-.01.397l-.075.119a.295.295 0 0 1-.273.191H.47c-.119 0-.286-.09-.388-.182a.465.465 0 0 1-.052-.435l8.818-21.696c.139-.275.312-.31.449-.31l15.816-.08c-1.158-2.517-1.762-4.442-1.762-5.669C23.352 17.87 27.25 14 32.04 14zm-6.475 15.248-.015.008a.635.635 0 0 1-.19.027l-15.787.081-8.35 20.648h61.635l-8.432-20.73-2.873.002-.089-.02-.054.006c-.027.003-.052.008-.047.013H38.64a.72.72 0 0 1-.115-.01c-1.109 2.3-2.46 4.694-3.614 6.628 3.14.346 6.22 1.437 6.22 3.16.014.437-.167.85-.539 1.23-1.246 1.275-4.51 2.099-8.313 2.099-4.328 0-8.927-1.17-8.927-3.339 0-1.517 2.276-2.735 5.964-3.183l-.11.014c-1.486-2.486-2.706-4.711-3.64-6.634zm4.137 7.457-.056.049a.635.635 0 0 1-.264.11c-3.201.378-5.114 1.41-5.114 2.187 0 .983 3.018 2.351 7.933 2.351s7.933-1.368 7.933-2.35c0-.845-2.094-1.894-5.565-2.184a.841.841 0 0 1-.2-.07c-.96 1.577-1.709 2.718-1.935 3.031l-.046.1c-.039.149-.234.172-.348.172-.138 0-.323-.101-.378-.246-.03-.054-.135-.218-.298-.476-.584-.92-1.138-1.812-1.662-2.674zm2.338-21.637c-4.242 0-7.694 3.428-7.694 7.641 0 3.667 6.199 13.67 7.441 15.637l.253.4.253-.4c1.242-1.968 7.441-11.97 7.441-15.637 0-4.213-3.451-7.641-7.694-7.641zm0 4.142c1.75 0 3.122 1.362 3.122 3.1 0 1.739-1.372 3.1-3.122 3.1-1.75 0-3.122-1.361-3.122-3.1 0-1.738 1.372-3.1 3.122-3.1zm0 .91c-1.193 0-2.128.929-2.128 2.113 0 1.185.935 2.113 2.128 2.113s2.128-.928 2.128-2.113c0-1.184-.935-2.113-2.128-2.113z" fill="#000" fill-rule="evenodd"/>
</svg>
