<svg width="64" height="64" viewBox="0 0 64 64" xmlns="http://www.w3.org/2000/svg">
    <path d="M28.04 37.102c.124 1.715.601 4.938 1.851 6.185a3.06 3.06 0 0 0 2.173.897 3.066 3.066 0 0 0 2.173-5.233c-1.252-1.25-4.48-1.724-6.198-1.849zm4.024 8.2a4.169 4.169 0 0 1-2.965-1.225c-2.026-2.02-2.207-7.324-2.214-7.55l-.018-.592.595.017c.225.007 5.543.188 7.567 2.209a4.182 4.182 0 0 1 0 5.916 4.17 4.17 0 0 1-2.965 1.225zM32 22.612h2.066a.923.923 0 0 0 .923-.92v-.721h-5.98v.721c0 .508.415.92.924.92H32zm0 32.399c-7.049 0-12.993-5.227-13.878-12.179l-2.262 3.629a.562.562 0 0 1-.773.179.557.557 0 0 1-.18-.77l2.333-3.74c.244-.39.688-.582 1.14-.481.455.1.786.467.842.932C19.987 49.03 25.48 53.893 32 53.893c3.53 0 6.822-1.398 9.27-3.936a12.726 12.726 0 0 0 3.587-9.412c-.263-6.787-6.023-12.318-12.84-12.328h-.02a12.764 12.764 0 0 0-9.381 4.054.562.562 0 0 1-.793.025.557.557 0 0 1-.025-.79 14.068 14.068 0 0 1 9.641-4.395v-3.38h-1.506a2.044 2.044 0 0 1-2.045-2.039v-1.839h8.222v1.84a2.044 2.044 0 0 1-2.044 2.038h-1.506v3.38c7.172.294 13.139 6.192 13.417 13.39a13.832 13.832 0 0 1-3.898 10.23A13.89 13.89 0 0 1 32 55.012zm0-53.37c-3.034 3.32-21.88 24.562-21.88 39.414 0 12.036 9.816 21.827 21.88 21.827 12.063 0 21.878-9.791 21.878-21.827C53.879 26.203 35.033 4.962 32 1.64zM32 64C19.318 64 9 53.707 9 41.055c0-6.952 3.809-15.909 11.321-26.621C25.89 6.493 31.536.492 31.593.432L32 0l.407.432C33.332 1.408 55 24.541 55 41.055 55 53.707 44.682 64 32 64z" fill="#000000" fill-rule="evenodd"/>
</svg>
