<svg width="64" height="64" viewBox="0 0 64 64" xmlns="http://www.w3.org/2000/svg">
    <path d="M36.835 17.476c4.33 0 7.85 3.523 7.85 7.854v38.087a.583.583 0 1 1-1.164 0V25.33c0-3.688-3-6.688-6.686-6.688H5.025a10.185 10.185 0 0 0-.494 3.837.562.562 0 0 1 .126-.013h32.178a2.866 2.866 0 0 1 2.863 2.864v38.087a.583.583 0 1 1-1.165 0V25.33a1.7 1.7 0 0 0-1.698-1.698H25.978a11.367 11.367 0 0 1-11.246 9.61c-6.277 0-11.385-5.11-11.385-11.39 0-1.376.243-2.72.72-3.998l.142-.378h32.626zM14.853 35.809c.322 0 .582.261.582.583v4.606a.583.583 0 1 1-1.164 0v-4.606c0-.322.26-.583.582-.583zM4.798 31.573c.23.225.232.594.007.824l-1.807 1.845a.578.578 0 0 1-.823.007.583.583 0 0 1-.008-.824l1.807-1.844a.582.582 0 0 1 .824-.008zm20.934.008 1.807 1.844a.584.584 0 0 1-.831.817L24.9 32.397a.583.583 0 1 1 .83-.816zm-.934-7.95H4.667c.845 4.793 5.036 8.445 10.065 8.445 5 0 9.218-3.586 10.066-8.444zM41.34 12.798c4.339 0 7.869 3.532 7.869 7.873a.583.583 0 1 1-1.165 0c0-3.698-3.007-6.707-6.704-6.707a.583.583 0 0 1 0-1.166zm0-5.67c7.464 0 13.535 6.076 13.535 13.543a.583.583 0 1 1-1.165 0c0-6.824-5.55-12.376-12.37-12.376a.583.583 0 0 1 0-1.166zm0-7.127C52.732 0 62 9.272 62 20.67a.583.583 0 1 1-1.165 0c0-10.755-8.745-19.504-19.495-19.504a.583.583 0 0 1 0-1.166z" fill="#ffffff" fill-rule="evenodd"/>
</svg>
