<svg width="24" height="24" viewBox="0 0 24 24" xmlns="http://www.w3.org/2000/svg">
    <path d="M20.25 0A3.75 3.75 0 0 1 24 3.75v16.5A3.75 3.75 0 0 1 20.25 24H3.75A3.75 3.75 0 0 1 0 20.25V3.75A3.75 3.75 0 0 1 3.75 0h16.5zm0 1.453H3.75a2.297 2.297 0 0 0-2.293 2.162l-.004.135v16.5c0 1.223.956 2.223 2.162 2.293l.135.004h16.5a2.297 2.297 0 0 0 2.293-2.162l.004-.135V3.75a2.297 2.297 0 0 0-2.162-2.293l-.135-.004zM17.336 6.75c.366 0 .664.312.664.697 0 .385-.298.697-.664.697h-.638c-1.098 0-1.993.938-1.993 2.09v2.091h2.63c.367 0 .665.312.665.697 0 .385-.298.697-.664.697h-2.631V22.5h-1.329v-8.781h-1.462c-.365 0-.664-.312-.664-.697 0-.385.299-.697.664-.697h1.462v-2.09c0-1.922 1.49-3.485 3.322-3.485z" fill="#000" fill-rule="evenodd"/>
</svg>
