<svg width="24" height="24" viewBox="0 0 24 24" xmlns="http://www.w3.org/2000/svg">
    <path d="M20.25 0A3.75 3.75 0 0 1 24 3.75v16.5A3.75 3.75 0 0 1 20.25 24H3.75A3.75 3.75 0 0 1 0 20.25V3.75A3.75 3.75 0 0 1 3.75 0h16.5zm0 1.453H3.75a2.297 2.297 0 0 0-2.293 2.162l-.004.135v16.5c0 1.223.956 2.223 2.162 2.293l.135.004h16.5a2.297 2.297 0 0 0 2.293-2.162l.004-.135V3.75a2.297 2.297 0 0 0-2.162-2.293l-.135-.004zM12 6c3.308 0 6 2.692 6 6s-2.692 6-6 6-6-2.692-6-6 2.692-6 6-6zm0 1.5A4.505 4.505 0 0 0 7.5 12c0 2.481 2.019 4.5 4.5 4.5s4.5-2.019 4.5-4.5-2.019-4.5-4.5-4.5zm7.5-3c.246 0 .75.505.75 1.5 0 .245-.504.75-.75.75-.996 0-1.5-.505-1.5-.75 0-.995.504-1.5 1.5-1.5z" fill="#000" fill-rule="evenodd"/>
</svg>
