<svg width="72" height="72" viewBox="0 0 72 72" xmlns="http://www.w3.org/2000/svg">
    <path d="M9.071 55.036c4.351 0 7.891 3.54 7.891 7.892-.003 4.353-3.543 7.893-7.89 7.893-4.352 0-7.892-3.54-7.892-7.893 0-4.351 3.54-7.892 7.891-7.892zM1.18 9.083c0-4.353 3.54-7.893 7.891-7.893s7.891 3.54 7.891 7.893c0 4.351-3.54 7.892-7.89 7.892-4.352-.003-7.892-3.544-7.892-7.892zm16.156 3.687.052-.111c.026-.055.052-.107.074-.162.079-.196.147-.386.215-.575.016-.056.046-.135.078-.216.08-.26.147-.528.208-.806.013-.087.02-.137.033-.19.032-.16.07-.346.089-.531l.055-.528h8.39L9.661 26.526v-8.384l.52-.062c.169-.02.332-.053.502-.087l.13-.022c.029-.004.057-.007.088-.015.289-.061.56-.13.819-.21.057-.018.11-.04.166-.061l.201-.072c.132-.046.265-.091.389-.148.117-.047.199-.087.286-.13.181-.083.336-.155.49-.236l.288-.16a6.81 6.81 0 0 0 .372-.226l.136-.086c.057-.037.114-.071.169-.111.154-.11.302-.22.454-.34l.087-.066c.038-.028.076-.056.112-.088.216-.177.41-.348.59-.536.22-.22.397-.421.569-.622.033-.039.062-.078.09-.116l.182-.24c.074-.096.147-.192.22-.295.03-.043.057-.085.085-.13l.089-.138c.091-.134.177-.275.255-.417l.165-.297c.075-.144.15-.3.221-.461zm26.67-3.107L9.66 44.017l.001-15.826L28.186 9.663h15.82zm9.85-.01.06.521c.024.191.059.374.095.562.016.099.019.126.026.158.061.29.13.56.21.819.019.057.04.11.06.166l.074.201c.045.133.09.266.147.39.047.116.088.198.13.286.084.18.155.335.236.49l.16.287c.068.124.148.25.226.373l.086.135c.037.058.072.114.111.17.102.149.2.279.305.403l.35.414L15.05 56.115l-.411-.322c-.104-.081-.21-.16-.318-.24l-.113-.085c-.028-.02-.071-.047-.115-.075l-.138-.09a6.22 6.22 0 0 0-.417-.25l-.297-.166c-.144-.074-.3-.15-.461-.222l-.112-.051c-.054-.026-.106-.052-.162-.074a15.417 15.417 0 0 0-.574-.214 3.723 3.723 0 0 1-.216-.08c-.26-.079-.529-.145-.806-.208a1.828 1.828 0 0 1-.19-.033 5.882 5.882 0 0 0-.53-.088l-.529-.056v-8.188l36.014-36.02h8.18zM62.91 1.19c4.351 0 7.891 3.54 7.891 7.893 0 4.351-3.54 7.892-7.891 7.892a7.852 7.852 0 0 1-5.316-2.076l-.152-.212c-.017-.03-.03-.06-.051-.087-.003-.002-.027-.022-.113-.063l-.101-.049-.077-.083a7.85 7.85 0 0 1-2.075-5.316c.003-4.356 3.54-7.9 7.885-7.9zM70.8 62.928c0 4.353-3.54 7.893-7.891 7.893s-7.891-3.54-7.891-7.893c0-4.351 3.54-7.892 7.89-7.892 4.352 0 7.892 3.54 7.892 7.892zm-16.157-3.696-.052.112c-.025.053-.05.106-.073.162-.08.195-.147.385-.215.573-.016.056-.047.136-.078.217a9.86 9.86 0 0 0-.208.805c-.013.088-.02.138-.033.19-.032.16-.07.348-.089.532l-.056.528h-8.39l16.851-16.853v8.384l-.52.062a7.38 7.38 0 0 0-.56.094l-.082.016-.075-.006v.001a8.71 8.71 0 0 0-.804.207c-.056.018-.11.04-.165.06l-.202.073c-.131.045-.264.09-.388.147-.118.048-.2.089-.287.13-.18.084-.335.157-.49.236l-.286.16c-.125.068-.251.15-.373.227l-.136.086c-.058.037-.114.07-.169.111-.154.11-.303.22-.454.34l-.088.066c-.037.028-.076.056-.111.087-.216.177-.41.349-.59.537-.22.22-.397.42-.57.622-.033.039-.061.078-.089.115l-.182.24a9.273 9.273 0 0 0-.22.295 2.459 2.459 0 0 0-.085.13l-.09.138c-.09.135-.177.276-.254.417l-.165.297c-.075.145-.15.3-.222.462zm-26.663 3.106L62.32 27.985v15.822l-18.516 18.53-15.823.001zm-9.918.016v-.57a8.132 8.132 0 0 0-.09-.528c-.015-.099-.019-.126-.026-.158-.061-.289-.13-.56-.211-.819-.018-.056-.039-.11-.06-.166l-.072-.201c-.046-.132-.092-.265-.148-.389a4.252 4.252 0 0 0-.13-.286c-.084-.181-.156-.335-.236-.49l-.16-.287c-.068-.125-.149-.25-.226-.373l-.086-.136c-.037-.057-.073-.113-.112-.17a4.45 4.45 0 0 0-.304-.402l-.351-.415 41.061-41.068.412.322c.102.081.21.16.318.24l.111.085.116.075.138.09c.134.09.276.177.416.254l.298.165c.144.075.3.15.462.223l.11.05c.055.027.108.052.163.074.196.079.384.147.573.215.057.017.136.047.217.078.26.08.529.147.806.208.088.013.137.02.19.033.16.032.346.07.531.089l.528.056v8.446l-.353.155a.575.575 0 0 0-.173.11L26.288 62.357l-8.225-.003zM9.07 72c4.568 0 8.435-3.424 8.997-7.965l.063-.517H53.87l.063.518A9.07 9.07 0 0 0 62.928 72C67.931 72 72 67.93 72 62.928c-.017-4.573-3.449-8.437-7.982-8.989l-.518-.063V18.133l.518-.063a9.072 9.072 0 0 0 7.963-8.998C71.981 4.07 67.911 0 62.91 0c-4.568 0-8.436 3.423-8.997 7.965l-.063.517H18.11l-.062-.52C17.504 3.428 13.645.01 9.071.01 4.07.009 0 4.078 0 9.08c0 4.568 3.424 8.436 7.963 8.997l.518.064v35.745l-.52.062A9.044 9.044 0 0 0 0 62.928C0 67.93 4.07 72 9.071 72z" fill="#6B7073" fill-rule="evenodd"/>
</svg>
