<svg width="200" height="24" viewBox="0 0 200 24" xmlns="http://www.w3.org/2000/svg">
    <path d="M172.21 5.303c-4.688 0-8.183 3.032-8.183 8.529 0 5.49 3.495 8.523 8.182 8.523 4.679 0 8.177-3.034 8.177-8.523 0-5.497-3.498-8.529-8.177-8.529zm5.088 10.496c0 3.436-2.642 5.172-5.089 5.172-2.43 0-5.075-1.736-5.075-5.076V11.763c0-3.343 2.646-5.07 5.075-5.07 2.447 0 5.089 1.77 5.089 5.177v3.93zm-24.15-2.313 9.194 8.318h-3.516l-8.227-7.4a1.756 1.756 0 0 0-1.169-.374v7.774h-2.643V5.69h2.643v7.958l8.904-7.958h3.545l-8.03 7.246c-.134.109-.379.31-.7.487v.063zM92.238 5.7v.136c.883.696.772 1.25.704 1.4l-6.774 14.568h2.42l2.904-6.035h5.836l3 6.035h2.665L95.182 5.7h-2.945zm3.954 8.038h-3.674l.047-.252 1.278-2.651c.15-.306.441-.899.292-1.33h.068l1.939 3.948.05.285zM46.682 5.69h11.963V7.7h-9.478v4.567h8.12v2.02h-8.12v3.912c0 .425-.04 1.325-.252 1.56v.063h9.73v1.982H46.033v-.136c.61-.287.65-1.208.65-1.39V5.69zm91.529 7.801c.853.854.933 1.369.933 1.51v3.36c0 .42.064 1 .259 1.23v.068s-.376.042-1.576.42c-1.613.503-4.465.945-7.217-1.17 0 0-1.78-1.376-1.78-3.954v-2.352c0-2.005 1.016-3.458 2.516-4.451.99-.624 3.438-2.356 9.611.12l-.168-2.251c-2.366-.782-3.296-.887-5.155-.887-2.784 0-5.359.913-7.254 2.572-1.912 1.675-2.76 3.948-2.76 6.408 0 2.453.753 4.551 2.567 6.084 1.796 1.525 4.266 2.32 7.14 2.32 1.634 0 2.782-.24 4.8-.795.596-.17 1.356.375 1.356.375h.135v-8.744h-3.407v.137zm-18.796-7.8h2.284v16.113h-2.284v-.65l-10.9-12.21v.062c.27.4.309.874.309 1.009v11.789h-2.282V7.338c0-.114-.079-.65-.932-1.511V5.69h3.217l9.847 10.744s.669.762.669 1.205h.072V5.69zm71.392 7.795v-.063c.321-.177.565-.378.699-.487l8.028-7.246h-3.538l-8.911 7.958V5.69h-2.639v16.114h2.639V14.03c.315-.015.765.054 1.167.374l8.23 7.4H200l-9.193-8.318zM39.452 5.69h2.288v16.114h-2.288v-.65L28.554 8.943v.062c.27.4.312.874.312 1.009v11.789h-2.282V7.338c0-.114-.08-.65-.934-1.511V5.69h3.217l9.848 10.744s.667.762.667 1.205h.07V5.69zM11.289 0C4.572 0 0 5.09 0 11.368c0 5.282 4.245 9.387 8.083 10.23 1.533.36 2.916.206 2.916.206v-2.498h-.141c-.368.59-1.532.413-1.85.353-2.542-.559-6.116-2.782-6.116-8.29 0-5.205 3.387-9.23 8.397-9.23 5.317 0 8.56 4.045 8.56 9.23 0 11.055-9.726 11.287-9.726 11.287V24c5.987 0 12.618-4.484 12.618-12.632C22.741 5.638 18.731 0 11.289 0zm72.577 17.059c0 1.974-1.111 4.745-5.416 4.745h-9.111v-.136c.632-.298.65-1.407.65-1.407V5.009h8.224c4.755 0 5.045 3.326 5.045 4.629 0 0-.048 2.68-2.371 3.027 1.568.42 2.98 1.74 2.98 4.394zM72.48 11.81h5.591c1.568 0 2.272-.288 2.272-1.57V8.625c0-1.162-.746-1.624-2.272-1.624H72.48v4.81zm8.463 4.046c0-.882-.312-2.016-2.364-2.022h-6.105v4.422s0 1.228-.26 1.505v.06h6.365c1.845 0 2.364-.858 2.364-1.831v-2.134z" fill="#000" fill-rule="evenodd"/>
</svg>
