<svg width="64" height="64" viewBox="0 0 64 64" xmlns="http://www.w3.org/2000/svg" xmlns:xlink="http://www.w3.org/1999/xlink">
    <defs>
        <path id="a" d="M0 0h33.188v43.91H0z"/>
    </defs>
    <g fill="none" fill-rule="evenodd">
        <path d="M38.27 17.987a.541.541 0 0 0 .002.768.546.546 0 0 0 .773 0 7.243 7.243 0 0 0 0-10.262.55.55 0 0 0-.774 0 .542.542 0 0 0 0 .768 6.159 6.159 0 0 1 0 8.726" fill="#ffffff"/>
        <path d="M41.98 22.447a.546.546 0 0 0 .773 0c4.882-4.866 4.882-12.782 0-17.646a.55.55 0 0 0-.774 0 .541.541 0 0 0-.001.768c4.458 4.44 4.458 11.668 0 16.11a.541.541 0 0 0 .001.768" fill="#ffffff"/>
        <path d="M46.638 27.089a.546.546 0 0 0 .774-.001c7.45-7.424 7.45-19.504 0-26.928a.55.55 0 0 0-.774-.002.542.542 0 0 0-.001.77c7.027 7 7.027 18.39 0 25.392a.541.541 0 0 0 .001.769M32 11.123a2.507 2.507 0 0 1 2.508 2.5 2.508 2.508 0 0 1-5.017 0c0-1.379 1.127-2.5 2.51-2.5m0 6.088a3.598 3.598 0 0 0 3.601-3.588 3.598 3.598 0 0 0-3.601-3.587c-1.987 0-3.603 1.61-3.603 3.587A3.6 3.6 0 0 0 32 17.21M16.976 27.247a.541.541 0 0 0 .387-.927c-7.026-7-7.026-18.392 0-25.392a.541.541 0 0 0-.002-.77.55.55 0 0 0-.772.001c-7.452 7.425-7.452 19.505 0 26.929.106.106.247.16.387.16" fill="#ffffff"/>
        <path d="M21.635 22.606c.14 0 .28-.053.386-.159a.541.541 0 0 0 .001-.769c-4.458-4.442-4.458-11.669 0-16.11a.54.54 0 0 0-.001-.767.549.549 0 0 0-.773 0c-4.884 4.864-4.884 12.78 0 17.645.106.107.247.16.387.16" fill="#ffffff"/>
        <path d="M25.34 18.914c.14 0 .28-.053.386-.159a.541.541 0 0 0 .002-.769 6.161 6.161 0 0 1 0-8.725.541.541 0 0 0-.002-.769.548.548 0 0 0-.773 0 7.245 7.245 0 0 0 0 10.262c.107.106.248.16.388.16" fill="#ffffff"/>
        <g transform="translate(15.405 20.09)">
            <mask id="b" fill="#fff">
                <use xlink:href="#a"/>
            </mask>
            <path d="m17.481 28.927 6.862-6.148 7 18.679L17.48 28.927zm-7.11-6.428h12.65l-6.353 5.692-6.297-5.692zm-8.532 18.98 7.06-18.842 6.953 6.286L1.84 41.478zM16.595 2.1l7.237 19.311H9.358l7.237-19.311zm.513-1.747A.546.546 0 0 0 16.595 0a.546.546 0 0 0-.512.354L.034 43.178a.542.542 0 0 0 .513.733.546.546 0 0 0 .366-.14l15.751-14.113 15.61 14.11c.187.17.467.19.674.05a.542.542 0 0 0 .206-.64L17.108.354z" fill="#ffffff" mask="url(#b)"/>
        </g>
    </g>
</svg>
